# xmcd
#
# Track frame offsets:
#	150
#	38053
#	57929
#	75858
#	93955
#	112746
#	130816
#	143277
#	158357
#	178778
#	206171
#
# Disc length: 3113 seconds
#
# Revision: 0
# Processed by: cddbd v1.5.1PL2 Copyright (c) Steve Scherf et al.
# Submitted via: EasyCDDAExtractor 9.0.0.1
#
DISCID=790c270b
DTITLE=Jack Falk Project - Blues Guitar Tributes
DYEAR=1900
DGENRE=Blues
TTITLE0=Willies Blues
TTITLE1=Tribute To Eric
TTITLE2=Tribute To Stevie
TTITLE3=Tribute To Page
TTITLE4=Tribute To Hendrix
TTITLE5=Tribute To Joma
TTITLE6=Tribute To Beck
TTITLE7=Tribute To Trower
TTITLE8=Blues Guitar Tributes
TTITLE9=Tribute To Alvin
TTITLE10=Data Track
EXTD=
EXTT0=
EXTT1=
EXTT2=
EXTT3=
EXTT4=
EXTT5=
EXTT6=
EXTT7=
EXTT8=
EXTT9=
EXTT10=
PLAYORDER=
